<svg width="36" height="36" viewBox="0 0 36 36" xmlns="http://www.w3.org/2000/svg">
 <g>
  <rect fill="none" id="canvas_background" height="402" width="582" y="-1" x="-1"/>
 </g>
 <g>
  <circle id="svg_1" fill="none" stroke="#dc4554" r="18" cy="18" cx="18"/>
  <path id="svg_2" d="m29.510421,27.998197l-3,-3l0,-0.02l-6,-6l0,0.02l-8.28,-8.27l0.01,-0.01l-1.41,-1.42l-0.01,0.01l-3.06,-3.06l-1.32,1.32l3.28,3.28c-0.76,1.31 -1.21,2.84 -1.21,4.47l0,7c0,1.66 1.34,3 3,3l3,0l0,-8l-4,0l0,-2c0,-1.08 0.25,-2.09 0.68,-3l9.32,9.32l0,3.68l3.68,0l0.32,0.32l0,0.68l-7,0l0,2l6,0c1.01,0 1.89,-0.5 2.43,-1.25l2.25,2.25l1.32,-1.32zm-12,-19.68c3.87,0 7,3.13 7,7l0,2l-3.03,0l5.03,5.03l0,-7.03c0,-4.97 -4.03,-9 -9,-9c-1.98,0 -3.81,0.65 -5.3,1.74l1.43,1.43c1.11,-0.74 2.44,-1.17 3.87,-1.17z" fill="#dc4554"/>
 </g>
</svg>
