<svg viewBox="0 0 24 24" xmlns="http://www.w3.org/2000/svg">
 <g>
  <g fill="none" fill-rule="evenodd" id="svg_1">
   <path d="m0,-7.32916l24,0l0,24l-24,0l0,-24z" id="svg_2"/>
   <path d="m17.533,7.13584c0.531,0.531 0.155,1.44 -0.596,1.44l-9.874,0c-0.751,0 -1.127,-0.909 -0.596,-1.44l4.826,-4.826a1,1 0 0 1 1.414,0l4.826,4.826z" fill="currentColor" id="svg_3"/>
  </g>
 </g>
 <g>
  <g id="svg_4" fill-rule="evenodd" fill="none">
   <path id="svg_5" d="m0,5.945946l24,0l0,24l-24,0l0,-24z"/>
   <path id="svg_6" fill="currentColor" d="m6.467,16.480946l4.826,4.826a1,1 0 0 0 1.414,0l4.826,-4.826c0.531,-0.531 0.155,-1.44 -0.596,-1.44l-9.874,0c-0.751,0 -1.127,0.909 -0.596,1.44"/>
  </g>
 </g>
</svg>